# xmcd
#
# Track frame offsets: 
#        150
#        15893
#        37799
#        54092
#        65822
#        80689
#        109644
#        121748
#
# Disc length: 2212 seconds
#
# Revision: 0
# Processed by: cddbd v1.5.2PL0 Copyright (c) Steve Scherf et al.
# Submitted via: ExactAudioCopy v0.95b3
#
DISCID=5308a208
DTITLE=Clark Hutchinson  - Blues    1968
DYEAR=1900
DGENRE=
TTITLE0=Clark Hutchingson - Bad Loser
TTITLE1=Clark Hutchingson - Crow Jane
TTITLE2=Clark Hutchingson - Guess I Have To Set You Free
TTITLE3=Clark Hutchingson - CH Boogie
TTITLE4=Clark Hutchingson - Maybe In The Morning
TTITLE5=Clark Hutchingson - Some One's Beeb At My Woman
TTITLE6=Clark Hutchingson - Just Wanna
TTITLE7=Clark Hutchingson - The Summer Seams Longer
EXTD=
EXTT0=
EXTT1=
EXTT2=
EXTT3=
EXTT4=
EXTT5=
EXTT6=
EXTT7=
PLAYORDER=
